<?xml version="1.0" standalone="no"?>
<!DOCTYPE svg PUBLIC "-//W3C//DTD SVG 20010904//EN"
 "http://www.w3.org/TR/2001/REC-SVG-20010904/DTD/svg10.dtd">
<svg version="1.0" xmlns="http://www.w3.org/2000/svg"
 width="300.000000pt" height="300.000000pt" viewBox="0 0 300.000000 300.000000"
 preserveAspectRatio="xMidYMid meet">
<metadata>
Created by potrace 1.10, written by Peter Selinger 2001-2011
</metadata>
<g transform="translate(0.000000,300.000000) scale(0.050000,-0.050000)"
fill="#000000" stroke="none">
<path d="M5617 5959 c60 -49 74 -49 74 1 0 31 -13 40 -60 39 l-61 0 47 -40z"/>
<path d="M2960 5941 c0 -6 -35 -9 -78 -5 -43 4 -99 -3 -124 -17 -26 -14 -74
-28 -106 -32 -33 -4 -80 -20 -104 -37 -25 -16 -60 -24 -77 -18 -17 7 -31 4
-31 -6 0 -26 -109 -86 -157 -86 -22 0 -68 -28 -101 -61 -34 -34 -71 -56 -82
-49 -11 7 -25 -1 -32 -18 -12 -31 -96 -93 -136 -100 -29 -5 -272 -242 -272
-265 0 -10 -18 -31 -40 -47 -22 -16 -40 -40 -40 -54 0 -14 -27 -45 -59 -69
-45 -33 -65 -70 -81 -148 -12 -58 -35 -111 -51 -117 -16 -6 -29 -37 -29 -70 0
-33 -13 -73 -30 -89 -16 -17 -30 -41 -30 -54 0 -13 -23 -88 -52 -167 -58 -160
-85 -812 -36 -874 13 -15 29 -74 36 -131 16 -125 85 -395 122 -477 31 -68 36
-93 32 -185 -3 -82 -72 -93 -102 -15 -10 27 -34 50 -52 50 -25 0 -29 12 -20
50 14 57 -10 65 -57 19 -52 -53 -30 -199 61 -402 15 -35 28 -84 28 -109 0 -48
17 -106 92 -318 26 -71 50 -156 54 -188 8 -71 69 -121 107 -89 33 27 36 -6 4
-38 -26 -26 -7 -93 22 -76 10 7 19 -4 20 -24 2 -77 8 -115 19 -125 7 -5 26
-34 42 -63 17 -29 81 -120 143 -202 61 -81 118 -168 126 -191 7 -24 22 -44 32
-44 11 0 19 -29 19 -66 0 -36 16 -87 35 -115 19 -27 32 -65 28 -84 -4 -29 10
-35 81 -38 150 -4 182 -11 207 -45 18 -25 40 -30 80 -20 49 12 54 9 44 -29 -9
-35 -2 -43 36 -43 26 0 52 -9 59 -20 7 -11 28 -20 48 -20 20 0 64 -14 97 -31
123 -61 585 -130 585 -87 0 7 78 18 173 25 96 8 184 22 197 33 12 10 68 29
124 41 66 14 122 42 159 80 31 32 66 58 78 58 40 1 289 222 289 256 1 19 42
80 91 135 50 55 117 130 150 166 33 36 69 60 81 53 23 -15 76 46 77 88 1 23
-5 23 -29 3 -40 -33 -42 11 -2 51 24 24 30 23 40 -4 10 -25 18 -27 42 -7 16
13 26 31 21 39 -5 8 6 36 24 63 58 82 165 301 165 337 0 19 6 40 13 47 7 7 16
56 21 108 9 108 17 123 50 90 82 -82 236 81 236 248 0 27 15 131 33 233 98
555 -14 876 -237 680 -70 -61 -89 -21 -73 148 47 489 16 1015 -70 1182 -18 34
-33 85 -33 113 0 27 -8 55 -19 61 -10 7 -31 36 -47 66 -120 233 -208 373 -286
455 -62 64 -100 120 -120 173 -6 18 -29 38 -50 43 -21 6 -38 25 -38 42 0 41
-32 41 -48 1 -6 -17 -22 -25 -34 -17 -16 9 -13 19 9 32 18 10 33 31 33 47 0
39 -35 37 -44 -3 -5 -25 -29 -14 -109 50 -56 45 -111 82 -122 82 -11 0 -82 31
-157 69 -76 38 -183 78 -238 90 -55 12 -170 41 -254 65 -150 42 -156 42 -195
7 -36 -32 -42 -33 -52 -5 -12 30 -129 44 -129 15z m-160 -97 c0 -4 -13 -20
-30 -37 -44 -44 -41 -101 3 -64 18 15 36 25 40 22 4 -3 18 -5 32 -5 19 1 19 4
1 16 -16 10 -18 25 -5 45 15 24 18 23 19 -6 0 -19 11 -35 25 -36 44 0 -113
-118 -160 -118 -45 -1 -58 19 -30 47 14 15 16 23 22 106 2 36 83 65 83 30z
m132 -19 c30 -39 37 -117 12 -132 -8 -6 -25 30 -36 78 -22 96 -17 108 24 54z
m356 3 c18 -7 27 -20 22 -29 -6 -9 -2 -22 10 -29 11 -7 20 -3 20 9 0 11 14 21
30 21 17 0 30 -13 30 -30 0 -33 -86 -61 -121 -39 -13 8 -31 2 -41 -13 -14 -22
-17 -21 -18 7 0 19 -9 35 -20 35 -11 0 -20 15 -20 34 0 26 5 29 24 10 33 -33
57 -30 43 6 -12 33 -6 36 41 18z m-200 -20 c18 -7 32 -21 32 -32 0 -11 -13
-15 -30 -9 -22 9 -30 -3 -30 -43 l0 -54 -40 65 c-54 88 -32 111 68 73z m523
-86 c-6 -10 0 -22 14 -27 46 -15 -21 -70 -96 -79 -71 -8 -78 0 -56 79 13 50
67 62 67 15 0 -16 -10 -30 -21 -30 -12 0 -16 -9 -9 -20 28 -45 75 -21 64 34
-14 73 5 123 30 78 10 -18 13 -40 7 -50z m127 10 c34 -19 40 -31 22 -42 -15
-9 -32 -3 -43 16 -10 18 -31 27 -48 21 -16 -6 -29 -1 -29 11 0 29 39 27 98 -6z
m-1113 -63 c-35 -48 -85 -66 -85 -29 0 11 -22 20 -50 20 -27 0 -50 -9 -50 -20
0 -11 -11 -20 -25 -19 -39 1 91 99 131 99 20 0 31 -8 25 -19 -6 -10 -4 -23 6
-29 10 -7 23 7 29 30 6 23 21 36 33 29 14 -9 9 -30 -14 -62z m-254 -31 c13
-43 -23 -86 -55 -65 -9 5 -16 -5 -16 -22 0 -17 -13 -31 -30 -31 -20 0 -30 19
-29 55 2 48 4 50 18 15 15 -37 18 -37 31 -5 8 19 23 29 34 22 13 -7 15 4 7 30
-8 24 -5 43 6 43 11 0 26 -19 34 -42z m906 -40 c3 -10 24 -18 45 -18 21 0 38
-7 38 -15 0 -27 97 -63 105 -39 5 15 33 10 81 -13 40 -19 122 -36 183 -37 61
-2 111 -9 111 -17 0 -8 36 -20 79 -27 50 -7 103 -35 141 -72 59 -58 131 -89
173 -76 21 6 186 -184 213 -244 8 -16 22 -43 32 -60 67 -110 162 -358 162
-424 0 -41 47 -100 68 -85 7 5 3 -2 -8 -15 -33 -40 -25 -196 10 -196 36 0 39
23 6 56 -23 23 -3 33 39 19 19 -7 7 -78 -19 -109 -34 -41 3 -191 57 -236 39
-32 53 -70 70 -190 11 -82 33 -180 49 -217 45 -108 37 -138 -22 -83 -35 33
-50 69 -51 118 -1 106 -52 325 -79 342 -68 42 -673 65 -940 36 l-130 -15 100
29 c55 15 132 29 172 29 39 1 101 15 136 33 36 18 87 28 113 23 39 -8 45 -4
28 17 -12 14 -64 32 -116 40 -51 7 -108 21 -126 30 -21 11 -61 6 -108 -14 -40
-17 -86 -26 -101 -20 -38 14 -118 -32 -118 -68 0 -19 -15 -28 -40 -23 -64 10
-85 43 -29 44 l49 2 -50 19 c-71 29 -137 6 -152 -52 -8 -31 -27 -50 -50 -50
-20 0 -52 -22 -70 -50 -20 -30 -51 -50 -80 -50 -29 0 -48 -12 -48 -30 0 -37
-23 -41 200 30 257 81 338 75 98 -8 -106 -36 -203 -72 -216 -80 -13 -9 -59
-18 -103 -21 -44 -3 -96 -20 -116 -38 -41 -37 -87 -42 -138 -14 -194 105 -899
98 -1283 -13 -354 -102 -322 -85 -322 -170 0 -42 -7 -76 -16 -76 -56 0 10 172
78 205 l72 35 -27 105 c-33 126 -36 180 -8 136 10 -17 24 -24 31 -18 6 7 -1
25 -16 40 -35 35 -53 126 -31 161 12 20 16 17 17 -9 0 -19 4 -35 8 -35 5 0 25
-5 45 -12 35 -10 35 -10 2 12 -25 15 -32 37 -23 71 13 50 -20 70 -39 24 -5
-14 -11 -4 -11 21 -1 26 7 41 18 34 11 -7 20 2 20 20 0 18 -9 27 -20 20 -11
-7 -20 -3 -20 9 0 11 8 21 18 21 10 0 25 46 32 103 50 359 167 551 425 700 58
33 105 68 105 78 0 9 32 32 70 50 39 19 70 41 70 49 0 9 54 32 120 52 66 19
120 42 120 49 0 39 287 106 431 101 76 -3 169 50 169 95 0 22 308 3 317 -19z
m1297 -1684 c103 -55 183 -375 129 -517 -77 -201 -1127 -284 -1290 -101 -120
135 -164 419 -74 483 221 157 1028 245 1235 135z m-2346 -164 c18 -69 92 -70
92 -1 0 85 431 23 480 -69 30 -57 24 -280 -11 -398 -51 -170 -267 -235 -839
-254 -441 -15 -487 22 -489 388 -2 264 61 299 669 371 33 4 66 8 73 10 7 2 18
-19 25 -47z m929 -122 c76 -54 42 -79 -97 -71 -106 6 -124 2 -114 -23 6 -18
-2 -36 -19 -43 -23 -8 -28 -3 -19 20 6 18 12 41 12 51 0 80 154 124 237 66z
m43 -128 c0 -34 176 -300 199 -300 8 0 43 -27 78 -60 71 -68 83 -72 83 -30 0
25 38 30 225 30 279 0 634 33 760 70 53 15 99 20 105 10 6 -10 24 -13 41 -7
16 6 29 1 29 -11 0 -12 13 -22 28 -22 32 0 63 -101 36 -118 -11 -7 -20 -70
-22 -141 -1 -85 -12 -135 -29 -145 -51 -28 -37 -136 18 -136 39 0 49 10 49 50
0 28 -8 50 -18 50 -10 0 5 87 33 192 54 203 43 279 -48 334 -40 24 6 214 51
214 10 0 32 -61 51 -135 19 -74 48 -150 65 -169 47 -52 68 -183 66 -401 -3
-197 24 -263 47 -117 21 131 83 123 130 -15 24 -71 17 -103 -23 -103 -13 -1
-38 -29 -55 -64 -61 -124 -104 -81 -49 49 11 27 5 35 -28 35 -23 0 -42 -13
-42 -28 0 -15 -13 -33 -28 -39 -17 -6 -25 -27 -19 -50 7 -27 -3 -47 -31 -62
-23 -12 -42 -36 -42 -52 0 -16 -8 -29 -19 -29 -10 0 -21 -20 -25 -45 -4 -29
-20 -45 -46 -45 -22 0 -42 -15 -46 -32 -3 -18 -28 -42 -55 -55 -51 -23 -63
-52 -29 -73 11 -7 20 -22 20 -34 0 -14 -10 -13 -29 3 -31 26 -84 -39 -55 -68
8 -8 4 -11 -9 -8 -13 4 -24 0 -25 -8 -6 -44 1 -53 31 -41 23 9 29 5 19 -11
-17 -28 17 -30 66 -4 30 16 34 11 26 -40 -5 -35 0 -59 14 -59 12 0 22 26 22
59 0 32 9 64 20 71 11 7 20 39 20 71 0 33 9 59 21 59 14 0 14 12 0 39 -28 52
-26 70 5 44 14 -12 46 -16 70 -10 57 15 58 -24 1 -54 -31 -17 -36 -27 -17 -39
16 -10 21 -35 12 -69 -8 -32 -22 -47 -36 -39 -15 10 -19 1 -12 -26 6 -22 3
-54 -6 -71 -10 -17 -23 -64 -29 -105 -8 -50 -33 -93 -74 -128 -115 -97 -132
-104 -205 -91 -86 16 -92 -5 -10 -34 41 -14 60 -34 60 -62 0 -23 -6 -36 -13
-29 -7 8 -26 3 -41 -9 -21 -18 -33 -18 -51 0 -28 28 -95 31 -95 4 0 -10 18
-24 40 -31 53 -17 51 -50 -2 -50 -34 0 -41 -10 -33 -48 5 -30 0 -45 -13 -40
-12 5 -31 -12 -42 -36 -11 -25 -47 -63 -80 -86 -33 -22 -60 -53 -60 -68 0 -16
-13 -33 -28 -38 -21 -7 -24 3 -15 42 10 41 6 49 -22 44 -19 -4 -46 -8 -60 -8
-14 -1 -25 -17 -25 -34 0 -23 12 -29 40 -22 22 6 36 4 31 -5 -5 -8 -12 -47
-14 -88 -3 -41 -16 -73 -29 -73 -15 0 -20 16 -14 41 10 35 3 40 -42 34 -29 -4
-51 -16 -48 -26 4 -10 13 -17 21 -14 27 9 16 -57 -15 -88 -27 -27 -30 -26 -30
2 0 33 -18 38 -68 19 -18 -7 -27 -20 -21 -29 14 -24 -64 -99 -103 -99 -18 0
-28 -11 -23 -25 7 -18 -12 -26 -65 -26 -57 0 -73 7 -64 29 7 18 2 23 -13 14
-12 -8 -23 -28 -23 -44 0 -17 -8 -25 -18 -19 -10 6 -23 0 -28 -14 -7 -20 -14
-20 -35 0 -39 37 -88 31 -130 -16 -32 -35 -39 -36 -54 -10 -9 17 -39 31 -66
31 -27 0 -48 7 -47 15 11 68 -48 79 -93 17 -29 -39 -145 -28 -174 16 -17 26
-59 -25 -42 -52 15 -25 -22 -19 -50 9 -14 14 -36 25 -49 25 -13 1 -21 17 -18
36 7 38 -43 100 -64 79 -31 -30 -95 -22 -135 18 l-43 43 53 -13 c31 -8 53 -5
53 7 0 11 -9 20 -20 20 -11 0 -20 14 -20 30 0 34 -51 41 -71 9 -8 -14 -24 -8
-43 15 -25 31 -28 32 -19 2 6 -18 0 -38 -13 -44 -13 -6 -6 -9 16 -6 25 2 39
-8 40 -31 0 -19 -9 -34 -20 -33 -11 1 -18 10 -15 20 3 10 -9 18 -26 18 -17 0
-29 11 -28 25 10 77 0 85 -94 78 -90 -7 -92 -6 -83 44 9 43 2 52 -42 57 -40 5
-53 19 -58 61 -4 30 -16 55 -27 55 -10 0 -14 8 -8 19 6 10 -6 24 -27 30 -54
18 -70 91 -19 91 22 0 34 9 27 20 -7 11 -34 20 -60 20 -26 0 -80 19 -119 42
-72 43 -95 98 -41 98 23 0 27 16 19 68 -6 38 -2 74 10 81 12 8 21 -2 21 -20 0
-27 6 -29 29 -10 21 18 39 18 70 2 43 -23 56 -61 21 -61 -11 0 -20 9 -20 20 0
40 -36 19 -48 -28 -6 -27 -17 -65 -23 -85 -11 -34 -10 -35 10 -2 13 19 40 35
60 35 20 0 42 14 49 32 18 46 15 108 -5 108 -10 0 -13 23 -8 51 7 33 20 48 38
41 15 -6 27 -1 27 11 0 12 -17 17 -38 12 -29 -8 -42 2 -51 37 -6 27 -20 48
-29 48 -27 0 -46 -64 -24 -86 26 -26 5 -74 -32 -74 -22 0 -28 15 -21 50 5 28
1 50 -9 50 -10 0 -16 29 -12 65 3 39 16 63 31 60 14 -3 25 5 25 17 0 14 -24
19 -60 14 -33 -5 -60 -1 -60 9 0 9 -9 12 -20 5 -11 -7 -20 2 -20 19 0 18 -18
32 -45 32 -88 3 -112 24 -90 79 12 28 23 71 25 98 2 26 19 55 37 66 38 21 42
72 11 116 -17 24 -20 21 -12 -15 6 -25 2 -50 -8 -56 -10 -6 -18 0 -18 13 0 14
-6 18 -14 10 -8 -8 -15 -33 -15 -56 -1 -44 -61 -68 -83 -33 -7 11 -12 52 -12
93 0 42 -13 82 -30 95 -72 52 -104 242 -64 369 12 39 21 134 20 213 l-3 142
94 -47 c76 -39 125 -48 258 -48 121 0 171 -8 189 -30 15 -18 59 -30 112 -30
96 0 107 11 53 53 -31 25 -23 27 60 15 66 -9 115 -3 160 18 103 47 253 67 215
27 -36 -37 -378 -212 -420 -215 -16 -1 -4 -9 29 -19 38 -11 68 -10 85 4 14 12
26 15 26 7 0 -8 12 -5 27 8 16 12 63 26 105 30 121 12 242 74 218 112 -5 8 11
37 36 63 63 65 112 143 194 307 45 91 93 155 137 184 75 50 183 53 183 6z
m-1844 -260 c1 -78 -4 -99 -16 -70 -9 22 -17 99 -16 170 1 100 4 116 16 70 8
-33 16 -109 16 -170z m3721 -86 c24 -30 -5 -74 -49 -74 -35 0 -53 64 -24 83
36 23 48 21 73 -9z m139 -219 c9 -72 -64 -114 -96 -55 -12 22 -35 40 -51 40
-16 0 -29 10 -29 22 0 13 18 18 39 12 22 -5 50 3 63 19 34 40 67 23 74 -38z
m-76 -679 c-33 -144 -96 -196 -134 -111 -26 59 -12 95 36 95 34 0 36 6 17 43
-23 42 7 88 44 65 8 -5 20 1 28 13 28 46 32 -3 9 -105z m-3735 23 c9 -38 17
-96 17 -129 0 -32 10 -65 22 -73 12 -7 16 -28 9 -46 -16 -43 -90 -7 -91 44 -1
19 -9 85 -19 145 -25 156 27 206 62 59z m3555 -101 c0 -10 -31 -18 -70 -18
-81 0 -90 14 -25 38 49 18 95 8 95 -20z m-3245 -428 c-12 -39 -28 -70 -35 -70
-28 0 -102 96 -83 108 11 7 26 4 33 -8 20 -32 46 -23 60 20 7 22 20 36 30 30
9 -5 7 -42 -5 -80z m85 -41 c0 -7 -9 -29 -21 -50 -21 -41 -119 -55 -119 -18 0
12 9 16 19 10 10 -7 29 6 41 28 19 37 80 59 80 30z m-20 -209 c0 -33 -10 -60
-21 -60 -12 0 -15 10 -8 22 8 12 3 29 -11 38 -14 9 -19 26 -11 38 25 41 51 22
51 -38z"/>
<path d="M3160 5304 c0 -38 38 -104 61 -104 29 0 22 25 -21 80 -22 28 -39 38
-40 24z"/>
<path d="M2910 5120 c-7 -22 -19 -40 -27 -40 -8 0 -16 -18 -18 -40 -1 -22 7
-40 18 -40 37 0 77 57 77 109 0 61 -32 68 -50 11z"/>
<path d="M3175 5011 c-23 -32 -28 -53 -14 -62 29 -17 46 2 54 62 8 60 4 60
-40 0z"/>
<path d="M3594 5015 c-11 -31 21 -95 47 -95 10 0 15 20 10 45 -4 25 -9 52 -10
60 -2 24 -37 17 -47 -10z"/>
<path d="M3879 5006 c-49 -8 -121 -86 -79 -86 11 0 20 -13 20 -30 0 -16 10
-30 22 -30 13 0 19 -21 13 -50 -11 -58 26 -67 68 -16 15 18 17 27 4 20 -13 -8
-28 -3 -33 11 -13 38 23 95 61 95 24 0 27 6 11 22 -13 13 -18 35 -12 50 6 16
3 27 -7 25 -9 -2 -40 -7 -68 -11z"/>
<path d="M4177 4994 c-28 -45 -4 -88 47 -84 80 7 82 16 15 54 -33 19 -60 32
-62 30z"/>
<path d="M2695 4966 c-88 -10 -93 -27 -25 -78 53 -40 69 -94 22 -76 -15 6 -34
1 -41 -11 -7 -11 0 -21 16 -21 30 0 79 -108 58 -128 -6 -7 -1 -12 12 -12 31 0
30 85 -2 119 -20 22 -20 24 3 11 23 -13 26 -4 16 44 -10 50 -4 65 38 87 92 49
46 80 -97 65z"/>
<path d="M2265 4936 c31 -19 167 -21 148 -2 -8 8 -50 15 -94 16 -45 1 -68 -5
-54 -14z"/>
<path d="M4000 4930 c0 -16 -9 -30 -20 -30 -11 0 -20 -19 -20 -42 0 -29 9 -39
30 -31 18 7 30 0 30 -18 0 -45 32 -35 69 23 40 60 27 86 -22 46 -30 -25 -32
-23 -20 27 10 42 7 55 -17 55 -16 0 -30 -13 -30 -30z"/>
<path d="M2220 4892 c0 -33 65 -151 79 -143 24 15 123 -24 149 -59 18 -23 28
-20 56 18 33 45 32 46 -15 41 -27 -3 -49 3 -49 13 0 10 -25 19 -55 20 -30 0
-44 6 -30 11 38 16 30 47 -13 47 -20 0 -48 14 -62 30 -23 27 -60 41 -60 22z"/>
<path d="M4151 4862 c-6 -10 -5 -33 1 -51 15 -39 91 -34 104 7 5 16 0 22 -12
15 -11 -8 -34 0 -51 17 -17 17 -36 22 -42 12z"/>
<path d="M2014 4779 c-17 -67 3 -80 93 -60 43 10 90 13 105 7 17 -6 28 3 28
22 0 19 -17 32 -40 32 -22 0 -40 -9 -40 -20 0 -41 -101 -21 -117 24 -16 43
-17 43 -29 -5z"/>
<path d="M3960 4730 c0 -38 9 -70 20 -70 11 0 20 32 20 70 0 39 -9 70 -20 70
-11 0 -20 -31 -20 -70z"/>
<path d="M3180 4750 c-14 -17 -20 -36 -14 -43 21 -20 74 10 74 42 0 40 -28 40
-60 1z"/>
<path d="M4060 4744 c0 -42 37 -84 74 -84 38 0 32 49 -11 87 -47 42 -63 42
-63 -3z"/>
<path d="M4270 4720 c7 -22 5 -40 -5 -40 -10 0 -16 -38 -14 -85 7 -131 8 -135
31 -135 14 0 19 30 15 80 -5 44 0 80 10 80 9 0 12 13 6 29 -6 17 1 43 17 58
33 33 19 53 -35 53 -29 0 -35 -10 -25 -40z"/>
<path d="M1905 4726 c-25 -5 -45 -18 -45 -29 0 -10 8 -14 19 -8 10 6 24 3 31
-9 22 -35 70 -22 70 20 0 22 -7 39 -15 37 -8 -1 -35 -6 -60 -11z"/>
<path d="M3248 4716 c-24 -37 27 -64 60 -31 27 28 27 32 -9 41 -21 6 -44 1
-51 -10z"/>
<path d="M3594 4707 c-8 -7 -4 -25 9 -40 16 -20 15 -27 -4 -27 -14 0 -21 -5
-15 -10 5 -6 41 2 78 18 l68 29 -56 21 c-67 26 -64 26 -80 9z"/>
<path d="M3060 4642 c0 -45 27 -82 60 -82 20 0 41 -11 46 -25 5 -14 16 -18 25
-10 9 9 6 26 -7 39 -31 31 -30 52 1 51 76 -3 105 6 77 24 -16 9 -48 10 -72 1
-24 -9 -56 -8 -72 1 -36 24 -58 24 -58 1z"/>
<path d="M3932 4591 c-37 -57 -41 -91 -11 -91 12 0 16 -9 9 -20 -7 -11 -1 -20
14 -20 15 0 27 24 27 55 1 30 9 71 18 90 23 53 -20 42 -57 -14z"/>
<path d="M4474 4427 c-19 -18 -18 -136 1 -155 14 -15 16 -22 23 -73 1 -12 11
-16 22 -9 11 7 20 -6 20 -29 0 -22 9 -41 20 -41 31 0 23 45 -19 100 -21 27
-31 58 -23 70 18 24 -25 157 -44 137z"/>
<path d="M2745 4147 c-36 -15 -10 -47 38 -47 22 0 37 11 32 24 -9 28 -35 36
-70 23z"/>
<path d="M2889 4142 c6 -10 -3 -23 -20 -30 -18 -6 -26 -21 -19 -32 22 -35 59
-21 83 30 21 44 19 50 -16 50 -22 0 -34 -8 -28 -18z"/>
<path d="M4280 4130 c0 -31 94 -103 112 -85 10 10 -84 115 -103 115 -5 0 -9
-13 -9 -30z"/>
<path d="M4394 4148 c-16 -16 68 -108 100 -108 36 0 33 28 -9 64 -50 43 -78
56 -91 44z"/>
<path d="M1545 4071 c-3 -36 5 -48 33 -46 29 3 34 13 23 43 -22 58 -52 60 -56
3z"/>
<path d="M2230 3997 c-229 -15 -299 -30 -332 -69 -13 -15 -36 -28 -53 -28 -38
0 -171 -81 -157 -95 6 -6 54 1 106 14 121 31 610 58 739 42 54 -7 120 -6 147
1 l50 14 -50 2 c-83 4 -138 25 -129 49 19 54 -115 83 -321 70z"/>
<path d="M1511 3855 c-25 -82 19 -120 88 -76 26 16 25 21 -5 32 -19 7 -34 26
-34 41 0 35 -38 37 -49 3z"/>
<path d="M4488 3826 c10 -69 5 -89 -27 -111 -39 -27 -39 -28 -1 -61 56 -47 72
-130 33 -169 -29 -29 -33 -29 -45 6 -8 22 -36 69 -63 106 -43 58 -47 73 -25
113 49 92 -14 148 -70 63 -28 -43 -38 -45 -149 -30 -157 21 -314 9 -357 -28
-48 -42 -87 -22 -72 37 13 51 -25 67 -65 27 -27 -27 -4 -149 27 -149 48 0 51
-32 7 -79 -58 -61 -72 -53 -88 46 -16 101 -51 129 -141 112 -70 -13 -101 -49
-43 -49 15 0 31 -20 35 -44 3 -25 25 -55 49 -66 33 -17 39 -30 24 -56 -23 -41
73 -142 118 -125 15 6 42 -4 60 -21 30 -30 34 -29 49 12 13 34 23 39 43 22 15
-12 32 -17 38 -10 19 19 95 -31 95 -63 0 -16 9 -29 20 -29 86 0 -51 122 -145
130 -53 4 -115 52 -115 90 0 13 120 60 154 60 11 0 16 -21 11 -47 -6 -36 10
-61 73 -112 46 -36 82 -82 82 -103 0 -51 29 -59 152 -42 98 13 102 16 85 61
-13 37 -28 45 -67 38 -55 -10 -62 6 -27 71 13 24 29 69 36 101 l11 56 59 -50
c42 -37 53 -57 38 -77 -30 -39 -28 -116 3 -116 14 0 30 -11 35 -24 6 -18 26
-16 76 9 38 19 61 34 52 35 -10 0 -6 14 8 32 25 29 29 29 51 -2 50 -68 109
-20 95 78 -7 51 -2 104 12 131 20 36 18 51 -7 79 -18 19 -32 53 -32 75 0 23
-23 67 -52 99 l-52 58 12 -84z m-325 -146 l47 -40 -160 4 c-88 2 -180 -3 -205
-12 -34 -11 -45 -7 -45 17 0 20 18 31 49 31 27 0 54 9 61 20 23 37 202 23 253
-20z m-140 -102 c-4 -16 -7 -53 -7 -83 1 -62 -2 -64 -53 -33 -33 21 -33 28 -4
90 30 63 79 83 64 26z"/>
<path d="M2088 3728 c7 -17 12 -35 12 -40 0 -28 57 -1 66 32 8 32 0 40 -40 40
-38 0 -47 -8 -38 -32z"/>
<path d="M1920 3711 c0 -39 29 -54 71 -38 32 13 32 15 -2 40 -47 35 -69 34
-69 -2z"/>
<path d="M1716 3565 c-4 -19 -24 -35 -46 -35 -32 0 -41 -15 -44 -70 -5 -107
-29 -188 -59 -206 -38 -23 -34 -61 6 -46 17 7 42 4 55 -6 14 -12 41 -2 78 30
31 26 46 48 34 48 -14 0 -18 16 -10 40 9 29 4 40 -20 40 -18 0 -27 9 -19 22 8
12 35 18 62 13 30 -6 46 -1 41 13 -4 12 -30 19 -56 16 -38 -4 -50 4 -52 35 -2
23 5 41 15 41 11 0 19 -9 19 -20 0 -31 79 -24 112 10 25 24 26 37 5 75 -22 39
-26 40 -33 10 -9 -43 -44 -47 -44 -5 0 42 -36 38 -44 -5z"/>
<path d="M2234 3587 c-7 -11 -52 -21 -101 -22 -99 -1 -201 -47 -238 -106 -14
-21 -36 -39 -51 -39 -14 0 -21 -8 -15 -19 6 -10 2 -24 -9 -31 -23 -14 -8 -50
21 -50 11 0 19 14 19 30 0 17 9 30 21 30 32 0 -15 -75 -63 -101 -23 -12 -36
-28 -30 -34 7 -6 -3 -29 -22 -50 -34 -37 -33 -38 17 -25 30 8 58 4 66 -8 7
-12 32 -22 55 -22 23 0 52 -15 65 -33 21 -28 50 -30 223 -16 109 9 177 20 151
24 -31 6 -42 18 -35 38 7 17 12 34 12 38 0 4 13 3 29 -3 31 -12 34 138 4 188
-27 43 40 48 114 8 77 -41 72 -72 -17 -121 -40 -22 -40 -22 1 -22 23 -1 53
-12 68 -26 22 -20 25 -19 16 7 -8 21 9 44 48 67 38 22 56 46 48 65 -6 16 -11
37 -11 46 0 10 -20 20 -45 24 -71 10 -57 67 15 63 154 -9 196 36 78 85 -73 31
-262 34 -280 4 -16 -25 -124 -19 -133 8 -5 16 -12 17 -21 3z m69 -87 c11 0 14
-8 8 -18 -6 -10 -43 -16 -82 -15 -40 2 -80 -6 -90 -18 -10 -13 -52 -24 -93
-25 -64 -3 -70 1 -45 25 31 31 211 72 256 59 14 -5 35 -8 46 -8z m-71 -149
c-7 -27 -3 -54 8 -61 11 -7 20 -21 20 -31 0 -23 -41 -24 -75 -2 -35 22 -10
143 30 143 21 0 26 -13 17 -49z m-172 -38 c0 -26 18 -70 40 -98 59 -75 22
-127 -40 -56 -5 6 -46 28 -90 50 -58 27 -70 40 -45 46 19 4 35 19 35 32 0 33
41 73 74 73 14 0 26 -21 26 -47z"/>
<path d="M3585 3071 c-2 -26 17 -65 45 -91 28 -26 50 -59 50 -73 0 -15 22 -27
50 -27 67 0 67 66 0 96 -31 14 -45 34 -38 52 7 19 -10 40 -46 59 -55 28 -58
28 -61 -16z"/>
<path d="M3921 3011 c-13 -16 -44 -32 -67 -35 -41 -7 -41 -8 6 -18 53 -11 140
47 104 70 -11 6 -30 -1 -43 -17z"/>
<path d="M4261 2951 c-30 -36 2 -56 57 -36 40 15 40 16 3 39 -30 19 -42 18
-60 -3z"/>
<path d="M3210 2904 c-24 -65 30 -111 108 -90 76 20 50 116 -33 117 -36 0 -69
-11 -75 -27z"/>
<path d="M4898 2888 c-13 -32 -26 -71 -28 -88 -3 -16 -7 -39 -10 -50 -10 -40
0 -110 17 -110 21 0 74 275 57 293 -7 7 -23 -13 -36 -45z"/>
<path d="M3739 2835 c-11 -35 -7 -176 5 -210 26 -78 56 -49 56 55 0 75 7 100
29 100 18 0 25 12 18 30 -9 24 -103 45 -108 25z"/>
<path d="M2840 2795 c0 -3 8 -34 19 -70 14 -51 12 -65 -9 -65 -15 0 -54 -23
-88 -51 -68 -57 -115 -51 -82 11 28 52 25 60 -18 60 -21 0 -43 -14 -50 -31 -6
-17 -20 -26 -31 -20 -10 7 -29 -6 -40 -28 -12 -22 -34 -35 -49 -29 -16 6 -34
1 -41 -11 -7 -11 -4 -21 8 -21 11 0 46 -28 76 -62 83 -94 107 -100 232 -64
119 33 157 74 50 52 -48 -9 -60 -6 -53 16 5 15 31 31 58 35 26 3 56 14 66 24
10 9 45 11 79 5 l60 -12 -43 61 -44 62 55 19 55 19 -56 23 c-31 12 -71 22 -88
22 -25 0 -26 6 -6 30 21 25 18 30 -18 30 -23 0 -42 -2 -42 -5z"/>
<path d="M3330 2776 c-63 -36 -90 -82 -66 -111 15 -17 14 -25 -1 -25 -28 0
-103 -81 -103 -112 0 -13 35 -27 80 -31 44 -5 80 -1 80 7 0 9 -10 16 -21 16
-12 0 -19 16 -15 35 4 19 18 34 31 33 14 -1 61 -3 105 -5 65 -2 85 -13 104
-53 36 -80 222 -76 212 5 -5 47 -16 56 -76 62 -38 3 -86 20 -105 38 -19 17
-69 37 -110 44 -67 11 -74 18 -69 67 6 61 8 61 -46 30z"/>
<path d="M3870 2763 c-18 -17 13 -43 51 -43 22 0 39 13 39 29 0 26 -68 36 -90
14z"/>
<path d="M2160 2442 c0 -12 14 -22 30 -22 17 0 30 -8 30 -19 0 -10 17 -17 37
-16 38 3 52 55 15 55 -12 0 -42 6 -67 13 -27 7 -45 3 -45 -11z"/>
<path d="M3148 2417 c-5 -8 -35 -11 -66 -4 -40 8 -60 2 -68 -21 -7 -18 -26
-32 -43 -32 -16 0 -57 -27 -90 -59 -37 -36 -73 -55 -92 -48 -18 7 -48 -9 -75
-41 -25 -28 -60 -52 -77 -52 -17 0 -54 -18 -82 -40 -28 -22 -61 -40 -73 -40
-12 0 -22 -9 -22 -20 0 -18 -51 -84 -115 -151 -14 -14 -25 -40 -25 -56 0 -17
-9 -36 -20 -43 -11 -7 -20 -3 -20 9 0 11 -9 21 -21 21 -14 0 -14 -13 1 -40 15
-29 15 -52 -1 -82 -12 -22 -17 -54 -11 -69 5 -15 2 -33 -9 -40 -10 -6 -19 -2
-19 10 0 11 -15 21 -32 21 -26 0 -30 -13 -21 -60 10 -51 5 -61 -38 -72 -62
-16 -62 -34 1 -68 28 -15 50 -39 50 -53 0 -31 32 -36 49 -8 7 11 25 14 42 8
18 -7 29 1 29 21 0 38 -23 41 -57 7 -20 -20 -28 -19 -42 3 -25 40 -3 82 41 82
21 0 36 11 33 25 -3 16 13 23 45 18 40 -5 45 -2 25 19 -45 46 -3 80 183 146
39 13 611 -21 680 -41 20 -6 32 -3 26 7 -6 9 4 19 22 20 49 4 234 21 394 37
77 7 146 17 154 21 7 5 19 0 26 -12 18 -28 42 -25 79 11 33 33 122 -10 185
-90 14 -17 25 -23 25 -13 1 11 -15 36 -34 58 -26 28 -35 72 -35 166 0 85 -8
128 -24 128 -13 0 -29 18 -36 40 -7 22 -26 40 -41 40 -16 0 -29 9 -29 20 0 11
-22 20 -49 20 -29 0 -58 17 -71 40 -12 22 -38 40 -58 40 -21 0 -48 13 -60 28
-13 15 -46 34 -74 41 -28 7 -77 40 -110 73 -32 33 -67 55 -77 49 -9 -6 -21 -3
-24 6 -9 23 -236 41 -249 20z m20 -160 c-8 -13 -3 -18 14 -13 15 6 71 -2 123
-18 53 -15 103 -23 112 -18 9 5 28 -8 44 -29 15 -21 43 -39 61 -39 54 0 166
-53 207 -98 46 -51 88 -53 123 -7 30 40 31 36 36 -130 l2 -85 -124 0 c-68 0
-129 9 -136 20 -7 11 -32 20 -56 20 -35 -1 -38 -5 -15 -19 16 -10 38 -13 48
-7 11 7 14 3 7 -8 -27 -43 -271 -29 -260 15 16 58 -107 29 -167 -39 -51 -60
-122 -39 -111 32 5 34 -6 39 -94 37 -54 0 -97 -10 -95 -21 4 -24 -206 -48
-220 -25 -5 8 -19 10 -29 4 -11 -7 -35 -7 -54 1 -32 12 -32 14 1 32 40 23 47
110 10 124 -20 7 -20 15 1 36 21 23 27 20 37 -18 9 -34 18 -40 37 -24 14 12
38 19 53 16 20 -4 26 16 23 74 -4 74 -3 77 25 41 16 -21 29 -45 29 -53 0 -8
17 -10 38 -4 21 5 57 0 79 -13 31 -16 52 -16 81 2 35 22 32 27 -45 69 -55 29
-91 38 -106 25 -15 -12 -28 -11 -36 2 -23 36 84 62 171 43 73 -17 84 -13 134
39 58 61 75 73 52 36z"/>
<path d="M3201 2098 c-63 -25 -64 -27 -51 -62 16 -40 154 0 145 42 -7 38 -34
44 -94 20z"/>
<path d="M3151 1941 l-59 -11 55 -25 c46 -21 56 -20 66 6 16 40 8 44 -62 30z"/>
<path d="M2123 2285 c-26 -48 -31 -138 -8 -152 34 -20 84 121 56 159 -24 33
-27 33 -48 -7z"/>
<path d="M4464 1939 c-23 -37 -22 -48 9 -82 26 -29 27 -36 5 -27 -21 8 -31 -5
-34 -50 -3 -33 5 -60 16 -60 11 0 20 17 20 39 0 31 11 37 60 30 55 -7 59 -4
39 34 -12 22 -28 35 -35 28 -7 -7 -22 19 -33 59 -20 69 -22 70 -47 29z"/>
<path d="M4353 1827 c-25 -26 -13 -47 27 -47 22 0 40 13 40 30 0 30 -42 41
-67 17z"/>
<path d="M4320 1737 c0 -12 16 -35 35 -51 25 -21 28 -31 10 -39 -29 -12 -34
-67 -6 -67 45 0 65 81 32 131 -33 51 -71 65 -71 26z"/>
<path d="M3949 1678 c-16 -52 21 -96 53 -64 24 24 7 106 -22 106 -10 0 -23
-19 -31 -42z"/>
<path d="M4209 1679 c-6 -11 2 -25 19 -31 32 -12 72 4 72 29 0 22 -77 23 -91
2z"/>
<path d="M3511 1568 c-18 -18 -44 -27 -59 -22 -14 6 -51 -6 -81 -25 l-54 -36
56 -8 c91 -12 168 4 117 24 -35 14 -33 16 15 18 41 1 55 11 55 41 0 48 -8 50
-49 8z"/>
<path d="M4146 1537 c4 -51 54 -86 54 -38 0 11 16 15 35 8 26 -8 28 -6 9 8
-14 10 -23 30 -20 44 3 15 -14 28 -38 30 -37 3 -43 -5 -40 -52z"/>
<path d="M2994 1524 c-149 -13 -70 -54 102 -54 142 1 208 14 182 37 -13 13
-202 23 -284 17z"/>
<path d="M3809 1491 c-33 -50 -116 -97 -259 -147 -190 -66 -796 -79 -784 -17
2 13 -19 26 -48 29 -31 4 -63 26 -79 55 -14 27 -39 49 -55 49 -24 0 -24 -5 -3
-31 23 -28 19 -30 -28 -18 -30 8 -70 15 -89 16 -19 2 -40 12 -48 22 -8 11 -19
15 -25 8 -33 -33 202 -217 278 -217 17 0 31 -9 31 -20 0 -11 16 -20 36 -20 19
0 54 -13 78 -30 60 -42 588 -1 676 52 11 7 45 18 75 26 30 7 55 22 55 32 0 11
14 20 30 20 17 0 30 8 30 18 0 9 26 28 57 41 72 30 145 125 123 160 -11 19
-25 12 -51 -28z"/>
<path d="M4171 1362 c-6 -11 3 -33 20 -50 33 -33 129 5 129 50 0 27 -55 21
-68 -7 -10 -20 -14 -20 -24 0 -13 29 -41 33 -57 7z"/>
<path d="M3938 1335 c-2 -14 -2 -32 0 -41 5 -32 -40 -94 -69 -94 -24 0 -26 -8
-9 -40 27 -51 59 -52 46 -2 -6 25 4 46 31 61 30 15 40 39 37 81 -4 58 -32 85
-36 35z"/>
<path d="M2060 1302 c0 -26 25 -52 71 -74 71 -33 119 -92 95 -115 -7 -7 7 -13
32 -13 24 0 40 -7 35 -16 -6 -8 13 -17 40 -20 78 -6 89 -22 46 -65 -46 -46
-50 -79 -11 -79 39 0 112 128 91 161 -9 15 -12 34 -6 43 5 9 -10 16 -33 16
-23 0 -37 9 -30 19 6 11 -6 37 -28 59 -31 31 -41 33 -50 10 -12 -31 -72 -39
-72 -9 0 10 16 28 35 39 49 27 15 52 -65 45 -37 -3 -86 4 -109 16 -35 19 -41
17 -41 -17z"/>
<path d="M3540 930 c0 -60 8 -110 19 -110 10 0 13 32 7 70 -7 41 -3 70 9 70
11 0 25 18 31 40 8 30 0 40 -28 40 -33 0 -38 -15 -38 -110z"/>
<path d="M2852 989 c-6 -17 -19 -27 -29 -21 -9 6 -16 -3 -16 -19 0 -16 7 -29
16 -29 10 0 17 9 17 20 0 11 18 20 39 20 27 0 36 10 28 30 -15 39 -40 38 -55
-1z"/>
<path d="M3315 984 c-19 -4 -35 -19 -35 -35 0 -17 12 -23 30 -16 36 14 95 -29
77 -57 -6 -11 8 -9 32 3 53 29 43 73 -15 66 -23 -2 -44 7 -48 21 -3 14 -22 22
-41 18z"/>
<path d="M3001 892 c-10 -13 -11 -52 -2 -92 13 -53 17 -58 19 -22 1 26 18 60
37 74 42 32 72 36 55 8 -20 -33 36 -22 86 16 45 35 44 35 -65 37 -61 0 -119
-9 -130 -21z"/>
<path d="M1400 5903 c0 -10 28 -24 63 -30 92 -19 105 -16 77 17 -26 32 -140
42 -140 13z"/>
<path d="M5229 5765 c1 -68 36 -64 43 5 3 29 -5 50 -19 50 -14 0 -24 -24 -24
-55z"/>
<path d="M4628 5771 c-34 -12 -58 -32 -53 -46 5 -14 -1 -25 -13 -25 -12 0 -22
-9 -22 -19 0 -11 33 2 72 29 40 27 80 45 89 39 9 -5 21 -1 28 9 18 29 -34 36
-101 13z"/>
<path d="M5899 5761 c12 -22 36 -41 52 -41 55 0 23 66 -37 76 -31 5 -33 0 -15
-35z"/>
<path d="M828 5676 c-82 -87 -102 -161 -42 -152 31 4 47 24 54 64 9 55 60 100
60 54 0 -12 14 -22 30 -22 17 0 30 18 30 39 0 26 -10 36 -28 29 -16 -6 -31 3
-35 22 -6 25 -20 18 -69 -34z"/>
<path d="M5461 5695 c3 -48 36 -110 38 -70 1 28 13 33 56 25 l55 -10 -55 22
c-30 12 -55 30 -55 40 0 10 -9 18 -20 18 -11 0 -19 -11 -19 -25z"/>
<path d="M705 5415 c-41 -50 -6 -155 52 -155 l52 0 -45 31 c-48 34 -57 88 -20
125 16 16 16 24 2 24 -11 0 -30 -11 -41 -25z"/>
<path d="M5105 5346 c-102 -20 -41 -41 80 -28 8 1 15 11 15 22 0 20 -15 21
-95 6z"/>
<path d="M5520 5303 c0 -10 28 -24 63 -30 98 -20 112 -15 50 17 -64 34 -113
39 -113 13z"/>
<path d="M5320 5092 c0 -15 -13 -33 -30 -39 -37 -14 -40 -53 -4 -53 14 0 41
27 61 60 31 52 31 60 4 60 -17 0 -31 -13 -31 -28z"/>
<path d="M5420 4953 c0 -17 -22 -26 -60 -25 -33 1 -60 9 -60 17 0 16 -121 1
-139 -18 -6 -6 16 -8 49 -5 33 4 69 2 80 -3 50 -26 159 -8 166 26 4 19 -3 35
-15 35 -11 0 -21 -12 -21 -27z"/>
<path d="M5340 4733 c0 -33 116 -76 132 -49 17 27 -12 52 -77 63 -35 7 -55 2
-55 -14z"/>
<path d="M5215 4648 c-18 -17 33 -108 61 -108 15 0 21 -9 14 -20 -7 -11 8 -20
34 -19 45 0 45 1 7 30 -21 16 -46 29 -55 29 -9 0 -16 17 -16 39 0 39 -26 68
-45 49z"/>
<path d="M312 4283 c-9 -25 -11 -51 -5 -56 15 -16 93 13 93 34 0 10 -13 13
-28 7 -17 -7 -32 4 -36 26 -7 31 -11 29 -24 -11z"/>
<path d="M765 4185 c-14 -4 -25 -17 -25 -28 0 -11 8 -14 19 -8 10 6 24 -7 31
-29 14 -43 40 -52 60 -20 7 11 -1 20 -17 20 -17 0 -33 17 -37 37 -3 20 -17 33
-31 28z"/>
<path d="M5420 3306 c0 -13 9 -29 20 -36 11 -7 20 -29 20 -49 0 -20 14 -42 31
-49 18 -7 26 -22 17 -37 -9 -16 -4 -15 14 3 22 21 22 29 3 36 -14 5 -20 18
-14 27 6 10 -12 43 -40 74 -28 30 -51 44 -51 31z"/>
<path d="M750 3051 c70 -34 128 -41 98 -11 -10 10 -50 24 -89 30 l-69 10 60
-29z"/>
<path d="M866 2189 c-19 -20 -19 -30 1 -46 18 -15 31 -11 48 16 29 46 -12 71
-49 30z"/>
<path d="M363 2011 c-34 -17 -40 -28 -20 -35 41 -16 98 10 81 37 -11 18 -26
17 -61 -2z"/>
<path d="M1302 1522 c-15 -10 -21 -27 -14 -38 7 -11 1 -24 -12 -29 -14 -4 -16
-13 -5 -19 26 -15 109 18 109 43 0 12 -10 21 -21 21 -12 0 -16 9 -9 20 15 25
-10 26 -48 2z"/>
<path d="M1821 690 c0 -143 1 -271 0 -284 -1 -15 -24 -20 -67 -13 -36 6 -155
-8 -265 -31 -198 -41 -599 -74 -1184 -96 -304 -12 -305 -12 -305 -59 0 -30 12
-48 35 -50 19 -2 75 -6 125 -10 50 -3 117 -9 150 -13 33 -3 71 5 85 19 18 17
88 23 230 19 117 -2 222 5 245 17 22 11 126 22 230 24 282 4 299 6 250 27 -26
12 16 16 123 14 90 -2 159 3 154 11 -16 26 50 40 121 27 89 -17 98 -48 52
-181 -42 -124 -30 -141 37 -50 25 33 52 56 61 50 17 -10 14 43 -5 89 -7 17
-10 116 -7 220 3 110 -6 240 -21 308 -15 65 -23 128 -18 142 5 13 1 36 -9 52
-12 18 -18 -67 -17 -232z"/>
<path d="M4559 835 c-1 -3 -6 -59 -12 -125 -6 -69 -23 -135 -42 -155 -25 -28
-26 -35 -3 -35 24 -1 24 -3 0 -18 -15 -10 -21 -27 -14 -38 7 -12 4 -27 -7 -33
-11 -7 -17 -39 -13 -71 4 -33 0 -55 -9 -50 -28 18 -35 -42 -8 -78 20 -28 21
-47 4 -86 -19 -42 -17 -53 11 -69 19 -11 30 -28 24 -38 -13 -21 71 -46 120
-36 30 6 29 13 -8 60 -45 57 -63 399 -25 473 35 68 44 304 12 304 -16 0 -30
-2 -30 -5z"/>
</g>
</svg>
